<svg width="18" height="22" viewBox="0 0 18 22" fill="none" xmlns="http://www.w3.org/2000/svg">
<path d="M6.9045 19.1745L6.582 20.3266C2.4285 19.9274 0 16.8492 0 13.8509V13.0361C0 12.3879 0.237053 11.7662 0.65901 11.3078C1.08097 10.8494 1.65326 10.5919 2.25 10.5919H9.06C8.21714 11.2346 7.52924 12.0885 7.05455 13.0813C6.57987 14.0741 6.33236 15.1765 6.333 16.2952C6.333 17.3218 6.537 18.2962 6.9045 19.1745ZM7.5 0C8.59402 0 9.64323 0.472123 10.4168 1.31251C11.1904 2.15289 11.625 3.29269 11.625 4.48117C11.625 5.66966 11.1904 6.80946 10.4168 7.64984C9.64323 8.49023 8.59402 8.96235 7.5 8.96235C6.40598 8.96235 5.35677 8.49023 4.58318 7.64984C3.8096 6.80946 3.375 5.66966 3.375 4.48117C3.375 3.29269 3.8096 2.15289 4.58318 1.31251C5.35677 0.472123 6.40598 0 7.5 0ZM18 16.2952C18.0002 17.288 17.7619 18.2638 17.3085 19.1259C16.8552 19.9879 16.2025 20.7065 15.4151 21.2105C14.6276 21.7145 13.7327 21.9865 12.8189 21.9995C11.905 22.0125 11.0038 21.7662 10.2045 21.2848L8.1165 21.9741C8.03375 22.0015 7.94568 22.004 7.86173 21.9812C7.77777 21.9585 7.7011 21.9113 7.63992 21.8449C7.57874 21.7784 7.53535 21.6951 7.5144 21.6039C7.49345 21.5127 7.49573 21.417 7.521 21.3271L8.157 19.0605C7.76891 18.299 7.5464 17.4512 7.50651 16.5819C7.46662 15.7126 7.61041 14.8449 7.92686 14.0452C8.24331 13.2456 8.72404 12.5353 9.33221 11.9687C9.94038 11.4021 10.6599 10.9942 11.4355 10.7762C12.2112 10.5583 13.0225 10.5362 13.8073 10.7114C14.5921 10.8867 15.3295 11.2548 15.9632 11.7875C16.5968 12.3202 17.1098 13.0034 17.4628 13.7847C17.8159 14.5661 17.9996 15.4248 18 16.2952ZM11.25 13.8509C11.0511 13.8509 10.8603 13.9367 10.7197 14.0895C10.579 14.2423 10.5 14.4496 10.5 14.6657C10.5 14.8818 10.579 15.089 10.7197 15.2418C10.8603 15.3946 11.0511 15.4804 11.25 15.4804H14.25C14.4489 15.4804 14.6397 15.3946 14.7803 15.2418C14.921 15.089 15 14.8818 15 14.6657C15 14.4496 14.921 14.2423 14.7803 14.0895C14.6397 13.9367 14.4489 13.8509 14.25 13.8509H11.25ZM10.5 17.9247C10.5 18.1408 10.579 18.348 10.7197 18.5008C10.8603 18.6536 11.0511 18.7395 11.25 18.7395H12.75C12.9489 18.7395 13.1397 18.6536 13.2803 18.5008C13.421 18.348 13.5 18.1408 13.5 17.9247C13.5 17.7086 13.421 17.5014 13.2803 17.3486C13.1397 17.1958 12.9489 17.1099 12.75 17.1099H11.25C11.0511 17.1099 10.8603 17.1958 10.7197 17.3486C10.579 17.5014 10.5 17.7086 10.5 17.9247Z" fill="#F5F5F5"/>
</svg>
