<svg width="22" height="22" viewBox="0 0 22 22" fill="none" xmlns="http://www.w3.org/2000/svg">
<g id="icono-chat-topic">
<path id="Vector" d="M14.4828 16.7012C14.4828 16.9026 14.4101 17.0957 14.2808 17.238C14.1514 17.3804 13.976 17.4604 13.7931 17.4604H4.13793C3.98621 17.4604 3.84138 17.6122 3.71724 17.7109L1.37931 19.7379V7.59142C1.37931 7.39008 1.45197 7.19699 1.58131 7.05462C1.71064 6.91225 1.88606 6.83227 2.06897 6.83227H4.73103V5.31396H2.06897C1.52024 5.31396 0.993992 5.55391 0.605986 5.98102C0.21798 6.40812 0 6.9874 0 7.59142V21.2562C0.00102641 21.3971 0.0377014 21.535 0.105915 21.6544C0.174128 21.7737 0.271184 21.8698 0.386207 21.9318C0.49702 21.9873 0.619198 22.0095 0.740327 21.9961C0.861457 21.9828 0.977222 21.9344 1.07586 21.8559L4.62759 18.9787H13.8966C14.1579 18.9872 14.4181 18.9365 14.661 18.8299C14.9039 18.7232 15.1243 18.5627 15.3085 18.3585C15.4928 18.1542 15.637 17.9105 15.7322 17.6424C15.8274 17.3743 15.8716 17.0876 15.8621 16.7999V15.9421H14.4828V16.7012Z" fill="#F5F5F5"/>
<path id="Vector_2" d="M19.9999 0H8.27575C7.72703 0 7.20078 0.239946 6.81277 0.667051C6.42477 1.09416 6.20679 1.67344 6.20679 2.27746V11.3873C6.20679 11.9913 6.42477 12.5706 6.81277 12.9977C7.20078 13.4248 7.72703 13.6647 8.27575 13.6647H17.6206L20.9171 16.4812C21.0151 16.5609 21.1306 16.6107 21.2517 16.6254C21.3729 16.64 21.4954 16.6191 21.6068 16.5647C21.7241 16.5032 21.8233 16.4064 21.8929 16.2855C21.9624 16.1646 21.9995 16.0245 21.9999 15.8815V2.27746C22.0002 1.68636 21.7917 1.1183 21.4185 0.693308C21.0453 0.268319 20.5366 0.019703 19.9999 0ZM20.6895 14.3783L18.2758 12.3059C18.1554 12.203 18.0074 12.147 17.8551 12.1464H8.27575C8.09284 12.1464 7.91743 12.0664 7.78809 11.9241C7.65876 11.7817 7.5861 11.5886 7.5861 11.3873V2.27746C7.5861 2.07612 7.65876 1.88302 7.78809 1.74065C7.91743 1.59829 8.09284 1.5183 8.27575 1.5183H19.9999C20.1842 1.53672 20.3561 1.6287 20.4831 1.77691C20.6102 1.92513 20.6836 2.11935 20.6895 2.323V14.3783Z" fill="#F5F5F5"/>
</g>
</svg>
