<svg width="22" height="22" viewBox="0 0 22 22" fill="none" xmlns="http://www.w3.org/2000/svg">
<g id="Icono-chat-document">
<path id="Vector" d="M14 17.1984C14 17.3809 13.9298 17.5559 13.8047 17.6849C13.6797 17.8139 13.5101 17.8864 13.3333 17.8864H4C3.85333 17.8864 3.71333 18.024 3.59333 18.1134L1.33333 19.9502V8.9432C1.33333 8.76075 1.40357 8.58577 1.5286 8.45676C1.65362 8.32775 1.82319 8.25527 2 8.25527H4.57333V6.87939H2C1.46957 6.87939 0.960859 7.09683 0.585787 7.48387C0.210714 7.87091 0 8.39585 0 8.9432V21.3261C0.0009922 21.4538 0.0364447 21.5788 0.102384 21.6869C0.168324 21.7951 0.262145 21.8821 0.373333 21.9383C0.480453 21.9886 0.598558 22.0087 0.71565 21.9966C0.832742 21.9845 0.944648 21.9407 1.04 21.8695L4.47333 19.2622H13.4333C13.686 19.27 13.9375 19.224 14.1723 19.1274C14.4071 19.0307 14.6201 18.8853 14.7982 18.7002C14.9764 18.5151 15.1158 18.2943 15.2078 18.0513C15.2998 17.8084 15.3426 17.5485 15.3333 17.2879V16.5105H14V17.1984Z" fill="#F5F5F5"/>
<path id="Vector_2" d="M20 8.40649V15.0932L17.6667 13.2152C17.5503 13.122 17.4073 13.0712 17.26 13.0707H8C7.82319 13.0707 7.65362 12.9982 7.5286 12.8692C7.40357 12.7402 7.33333 12.5652 7.33333 12.3828V4.12753C7.33333 3.94508 7.40357 3.7701 7.5286 3.64109C7.65362 3.51207 7.82319 3.43959 8 3.43959H13.6667C13.6684 2.97438 13.7312 2.51155 13.8533 2.06372H8C7.46957 2.06372 6.96086 2.28116 6.58579 2.6682C6.21071 3.05524 6 3.58017 6 4.12753V12.3828C6 12.9301 6.21071 13.4551 6.58579 13.8421C6.96086 14.2291 7.46957 14.4466 8 14.4466H17.0333L20.22 16.9988C20.3147 17.0711 20.4263 17.1162 20.5434 17.1295C20.6605 17.1428 20.779 17.1238 20.8867 17.0745C21.0001 17.0187 21.096 16.931 21.1632 16.8215C21.2304 16.7119 21.2663 16.585 21.2667 16.4553V7.82175C20.873 8.07687 20.4467 8.2737 20 8.40649Z" fill="#F5F5F5"/>
<path id="Vector_3" d="M18.6666 6.87936C20.5075 6.87936 21.9999 5.33936 21.9999 3.43968C21.9999 1.54 20.5075 0 18.6666 0C16.8256 0 15.3333 1.54 15.3333 3.43968C15.3333 5.33936 16.8256 6.87936 18.6666 6.87936Z" fill="#F5F5F5"/>
</g>
</svg>
