<svg width="22" height="19" viewBox="0 0 22 19" fill="none" xmlns="http://www.w3.org/2000/svg">
<g id="&#240;&#159;&#166;&#134; icon &#34;angle-double-right&#34;">
<path id="Vector" d="M19.9052 0C20.3195 0.000101089 20.7245 0.139559 21.069 0.400747C21.4135 0.661936 21.682 1.03312 21.8405 1.46739C21.9991 1.90166 22.0406 2.3795 21.9598 2.84051C21.879 3.30153 21.6795 3.72501 21.3865 4.05743L16.5822 9.50774L21.3865 14.9581C21.7735 15.4051 21.9893 16.0075 21.9868 16.6341C21.9843 17.2607 21.7637 17.8608 21.3732 18.3039C20.9826 18.747 20.4536 18.9971 19.9012 19C19.3489 19.0028 18.8179 18.7581 18.4238 18.319L12.1379 11.1882C11.9433 10.9676 11.7889 10.7056 11.6836 10.4172C11.5783 10.1289 11.5241 9.81981 11.5241 9.50767C11.5241 9.19554 11.5783 8.88646 11.6836 8.5981C11.7889 8.30975 11.9433 8.04776 12.1379 7.82711L18.4238 0.696301C18.6181 0.47525 18.849 0.29994 19.1032 0.180447C19.3574 0.0609512 19.63 -0.000371933 19.9052 0ZM8.38109 0C8.79543 0.000101089 9.20045 0.139559 9.54493 0.400747C9.88942 0.661936 10.1579 1.03312 10.3165 1.46739C10.475 1.90166 10.5165 2.3795 10.4357 2.84051C10.3549 3.30153 10.1554 3.72501 9.86246 4.05743L5.05809 9.50774L9.86246 14.9581C10.2495 15.4051 10.4652 16.0075 10.4627 16.6341C10.4602 17.2607 10.2397 17.8608 9.8491 18.3039C9.45852 18.747 8.92951 18.9971 8.37716 19C7.82481 19.0028 7.29382 18.7581 6.89972 18.319L0.613861 11.1882C0.419249 10.9676 0.264872 10.7056 0.159542 10.4172C0.0542126 10.1289 0 9.81981 0 9.50767C0 9.19554 0.0542126 8.88646 0.159542 8.5981C0.264872 8.30975 0.419249 8.04776 0.613861 7.82711L6.89972 0.696301C7.09403 0.47525 7.32493 0.29994 7.57915 0.180447C7.83337 0.0609512 8.10591 -0.000371933 8.38109 0Z" fill="#F5F5F5"/>
</g>
</svg>
