<svg width="481" height="86" viewBox="0 0 481 86" fill="none" xmlns="http://www.w3.org/2000/svg">
<path d="M35.7764 85.576C30.7204 85.576 26.0484 84.744 21.7604 83.08C17.4724 81.352 13.7604 78.952 10.6244 75.88C7.48844 72.808 5.02444 69.192 3.23244 65.032C1.50444 60.872 0.640438 56.328 0.640438 51.4C0.640438 46.472 1.50444 41.928 3.23244 37.768C5.02444 33.608 7.48844 29.992 10.6244 26.92C13.8244 23.848 17.5684 21.48 21.8564 19.816C26.1444 18.088 30.8164 17.224 35.8724 17.224C40.7364 17.224 45.3124 18.056 49.6004 19.72C53.8884 21.32 57.5044 23.752 60.4484 27.016L55.9364 31.528C53.1844 28.712 50.1444 26.696 46.8164 25.48C43.4884 24.2 39.9044 23.56 36.0644 23.56C32.0324 23.56 28.2884 24.264 24.8324 25.672C21.3764 27.016 18.3684 28.968 15.8084 31.528C13.2484 34.024 11.2324 36.968 9.76044 40.36C8.35244 43.688 7.64844 47.368 7.64844 51.4C7.64844 55.432 8.35244 59.144 9.76044 62.536C11.2324 65.864 13.2484 68.808 15.8084 71.368C18.3684 73.864 21.3764 75.816 24.8324 77.224C28.2884 78.568 32.0324 79.24 36.0644 79.24C39.9044 79.24 43.4884 78.6 46.8164 77.32C50.1444 76.04 53.1844 73.992 55.9364 71.176L60.4484 75.688C57.5044 78.952 53.8884 81.416 49.6004 83.08C45.3124 84.744 40.7044 85.576 35.7764 85.576ZM99.8804 34.12C103.976 34.12 107.56 34.92 110.632 36.52C113.768 38.056 116.2 40.424 117.928 43.624C119.72 46.824 120.616 50.856 120.616 55.72V85H113.8V56.392C113.8 51.08 112.456 47.08 109.768 44.392C107.144 41.64 103.432 40.264 98.6324 40.264C95.0484 40.264 91.9124 41 89.2244 42.472C86.6004 43.88 84.5524 45.96 83.0804 48.712C81.6724 51.4 80.9684 54.664 80.9684 58.504V85H74.1524V13.768H80.9684V48.424L79.6244 45.832C81.2244 42.184 83.7844 39.336 87.3044 37.288C90.8244 35.176 95.0164 34.12 99.8804 34.12ZM170.611 85V73.864L170.323 72.04V53.416C170.323 49.128 169.107 45.832 166.675 43.528C164.307 41.224 160.755 40.072 156.019 40.072C152.755 40.072 149.651 40.616 146.707 41.704C143.763 42.792 141.267 44.232 139.219 46.024L136.147 40.936C138.707 38.76 141.779 37.096 145.363 35.944C148.947 34.728 152.723 34.12 156.691 34.12C163.219 34.12 168.243 35.752 171.763 39.016C175.347 42.216 177.139 47.112 177.139 53.704V85H170.611ZM153.235 85.48C149.459 85.48 146.163 84.872 143.347 83.656C140.595 82.376 138.483 80.648 137.011 78.472C135.539 76.232 134.803 73.672 134.803 70.792C134.803 68.168 135.411 65.8 136.627 63.688C137.907 61.512 139.955 59.784 142.771 58.504C145.651 57.16 149.491 56.488 154.291 56.488H171.667V61.576H154.483C149.619 61.576 146.227 62.44 144.307 64.168C142.451 65.896 141.523 68.04 141.523 70.6C141.523 73.48 142.643 75.784 144.883 77.512C147.123 79.24 150.259 80.104 154.291 80.104C158.131 80.104 161.427 79.24 164.179 77.512C166.995 75.72 169.043 73.16 170.323 69.832L171.859 74.536C170.579 77.864 168.339 80.52 165.139 82.504C162.003 84.488 158.035 85.48 153.235 85.48ZM211.588 85.48C206.852 85.48 203.204 84.2 200.644 81.64C198.084 79.08 196.804 75.464 196.804 70.792V23.464H203.62V70.408C203.62 73.352 204.356 75.624 205.828 77.224C207.364 78.824 209.54 79.624 212.356 79.624C215.364 79.624 217.86 78.76 219.844 77.032L222.244 81.928C220.9 83.144 219.268 84.04 217.348 84.616C215.492 85.192 213.572 85.48 211.588 85.48ZM187.78 40.264V34.6H218.98V40.264H187.78ZM304.296 85V17.8H331.656C338.824 17.8 345.096 19.24 350.472 22.12C355.912 24.936 360.136 28.872 363.144 33.928C366.152 38.984 367.656 44.808 367.656 51.4C367.656 57.992 366.152 63.816 363.144 68.872C360.136 73.928 355.912 77.896 350.472 80.776C345.096 83.592 338.824 85 331.656 85H304.296ZM311.4 78.856H331.272C337.224 78.856 342.376 77.704 346.728 75.4C351.144 73.032 354.568 69.8 357 65.704C359.432 61.544 360.648 56.776 360.648 51.4C360.648 45.96 359.432 41.192 357 37.096C354.568 33 351.144 29.8 346.728 27.496C342.376 25.128 337.224 23.944 331.272 23.944H311.4V78.856ZM402.712 85.48C397.848 85.48 393.464 84.392 389.56 82.216C385.72 79.976 382.68 76.936 380.44 73.096C378.2 69.192 377.08 64.744 377.08 59.752C377.08 54.696 378.2 50.248 380.44 46.408C382.68 42.568 385.72 39.56 389.56 37.384C393.4 35.208 397.784 34.12 402.712 34.12C407.704 34.12 412.12 35.208 415.96 37.384C419.864 39.56 422.904 42.568 425.08 46.408C427.32 50.248 428.44 54.696 428.44 59.752C428.44 64.744 427.32 69.192 425.08 73.096C422.904 76.936 419.864 79.976 415.96 82.216C412.056 84.392 407.64 85.48 402.712 85.48ZM402.712 79.432C406.36 79.432 409.592 78.632 412.408 77.032C415.224 75.368 417.432 73.064 419.032 70.12C420.696 67.112 421.528 63.656 421.528 59.752C421.528 55.784 420.696 52.328 419.032 49.384C417.432 46.44 415.224 44.168 412.408 42.568C409.592 40.904 406.392 40.072 402.808 40.072C399.224 40.072 396.024 40.904 393.208 42.568C390.392 44.168 388.152 46.44 386.488 49.384C384.824 52.328 383.992 55.784 383.992 59.752C383.992 63.656 384.824 67.112 386.488 70.12C388.152 73.064 390.392 75.368 393.208 77.032C396.024 78.632 399.192 79.432 402.712 79.432ZM432.894 85L454.206 57.352L454.11 60.712L433.854 34.6H441.534L458.142 56.2L455.262 56.104L471.87 34.6H479.358L458.91 61L459.006 57.352L480.51 85H472.734L455.166 61.96L457.854 62.344L440.574 85H432.894Z" fill="#262626"/>
<path d="M229.828 85V78.88L264.748 44.68C267.948 41.56 270.348 38.84 271.948 36.52C273.548 34.12 274.628 31.88 275.188 29.8C275.748 27.72 276.028 25.76 276.028 23.92C276.028 19.04 274.348 15.2 270.988 12.4C267.708 9.6 262.828 8.19999 256.348 8.19999C251.388 8.19999 246.988 8.95999 243.148 10.48C239.388 12 236.148 14.36 233.428 17.56L227.308 12.28C230.588 8.44 234.788 5.48 239.908 3.4C245.028 1.32 250.748 0.279996 257.068 0.279996C262.748 0.279996 267.668 1.2 271.828 3.04C275.988 4.8 279.188 7.4 281.428 10.84C283.748 14.28 284.908 18.32 284.908 22.96C284.908 25.68 284.508 28.36 283.708 31C282.988 33.64 281.628 36.44 279.628 39.4C277.708 42.28 274.868 45.56 271.108 49.24L239.068 80.68L236.668 77.32H288.748V85H229.828Z" fill="#018B35"/>
</svg>
