<svg width="250" height="250" viewBox="0 0 250 250" fill="none" xmlns="http://www.w3.org/2000/svg">
<path id="Vector" d="M125 0C55.9648 0 0 55.9648 0 125C0 194.039 55.9648 250 125 250C194.039 250 250 194.039 250 125C250 55.9648 194.039 0 125 0ZM125 234.621C64.6914 234.621 15.625 185.309 15.625 125C15.625 64.6909 64.6914 15.6245 125 15.6245C185.309 15.6245 234.375 64.6912 234.375 125C234.375 185.308 185.309 234.621 125 234.621ZM174.887 79.2617L101.547 153.062L68.5193 120.035C65.4685 116.984 60.5232 116.984 57.4685 120.035C54.4177 123.086 54.4177 128.031 57.4685 131.082L96.1365 169.754C99.1873 172.801 104.133 172.801 107.187 169.754C107.539 169.402 107.84 169.019 108.113 168.621L185.941 90.3123C188.988 87.2615 188.988 82.3162 185.941 79.2617C182.887 76.2109 177.941 76.2109 174.887 79.2617Z" fill="#0CC0DF"/>
</svg>
