<svg width="20" height="18" viewBox="0 0 20 18" fill="none" xmlns="http://www.w3.org/2000/svg">
<path d="M10.0141 0C8.7027 0 7.40417 0.22491 6.19262 0.661888C4.98108 1.09887 3.88024 1.73935 2.95296 2.54678C1.08023 4.17746 0.0281467 6.38914 0.0281467 8.69527C0.0194168 10.7031 0.817826 12.6503 2.28497 14.1994L0.287781 15.9384C0.149218 16.0607 0.0553545 16.216 0.0180329 16.3847C-0.0192886 16.5533 0.00160464 16.7279 0.0780763 16.8862C0.161017 17.0427 0.295474 17.1741 0.464379 17.2639C0.633283 17.3537 0.829019 17.3978 1.02674 17.3905H10.0141C12.6625 17.3905 15.2025 16.4744 17.0752 14.8438C18.9479 13.2131 20 11.0014 20 8.69527C20 6.38914 18.9479 4.17746 17.0752 2.54678C15.2025 0.916106 12.6625 0 10.0141 0ZM10.0141 15.6515H3.43335L4.36204 14.8428C4.54803 14.6799 4.65242 14.4595 4.65242 14.2298C4.65242 14.0001 4.54803 13.7797 4.36204 13.6168C3.05447 12.4795 2.2402 10.9826 2.05798 9.38114C1.87575 7.7797 2.33684 6.17278 3.36267 4.83415C4.38851 3.49553 5.91564 2.50803 7.68387 2.03989C9.4521 1.57175 11.352 1.65193 13.06 2.26678C14.7679 2.88163 16.1782 3.99311 17.0506 5.41184C17.923 6.83057 18.2034 8.46879 17.8442 10.0474C17.4849 11.626 16.5082 13.0473 15.0805 14.0692C13.6527 15.091 11.8622 15.6502 10.0141 15.6515Z" fill="#F5F5F5"/>
</svg>
