<svg width="22" height="20" viewBox="0 0 22 20" fill="none" xmlns="http://www.w3.org/2000/svg">
<path fill-rule="evenodd" clip-rule="evenodd" d="M20.9724 11.2263V15.0614C20.9724 16.7226 17.2906 18.8965 12.7489 18.8965C8.20717 18.8965 4.52539 16.7226 4.52539 15.0614C4.52539 14.5149 4.52539 13.4496 4.52539 11.8655" fill="#0CC0DF"/>
<path d="M20.9724 11.2263V15.0614C20.9724 16.7226 17.2906 18.8965 12.7489 18.8965C8.20717 18.8965 4.52539 16.7226 4.52539 15.0614C4.52539 14.5149 4.52539 13.4496 4.52539 11.8655" stroke="#1E1E1E" stroke-opacity="0.36" stroke-width="0.752898" stroke-linecap="round" stroke-linejoin="round"/>
<path fill-rule="evenodd" clip-rule="evenodd" d="M4.86914 12.1969C5.8851 13.6648 9.02787 15.0411 12.7474 15.0411C17.2891 15.0411 20.9709 12.989 20.9709 11.224C20.9709 10.2336 19.8116 9.14803 17.9916 8.38599" fill="#0CC0DF"/>
<path d="M4.86914 12.1969C5.8851 13.6648 9.02787 15.0411 12.7474 15.0411C17.2891 15.0411 20.9709 12.989 20.9709 11.224C20.9709 10.2336 19.8116 9.14803 17.9916 8.38599" stroke="#1E1E1E" stroke-opacity="0.36" stroke-width="0.752898" stroke-linecap="round" stroke-linejoin="round"/>
<path fill-rule="evenodd" clip-rule="evenodd" d="M17.447 4.83472V8.66982C17.447 10.331 13.7652 12.5049 9.22349 12.5049C4.68178 12.5049 1 10.331 1 8.66982C1 7.85002 1 5.65451 1 4.83472" fill="#0CC0DF"/>
<path d="M17.447 4.83472V8.66982C17.447 10.331 13.7652 12.5049 9.22349 12.5049C4.68178 12.5049 1 10.331 1 8.66982C1 7.85002 1 5.65451 1 4.83472" stroke="#1E1E1E" stroke-opacity="0.36" stroke-width="0.752898" stroke-linecap="round" stroke-linejoin="round"/>
<path fill-rule="evenodd" clip-rule="evenodd" d="M9.22349 8.64928C13.7652 8.64928 17.447 6.59719 17.447 4.83214C17.447 3.06708 13.7652 1 9.22349 1C4.68178 1 1 3.06708 1 4.83214C1 6.59719 4.68178 8.64928 9.22349 8.64928Z" fill="#0CC0DF" stroke="#1E1E1E" stroke-opacity="0.36" stroke-width="0.752898" stroke-linecap="round" stroke-linejoin="round"/>
</svg>
