<svg xmlns="http://www.w3.org/2000/svg" viewBox="0 0 376.4 398.55"><defs><style>.cls-1{isolation:isolate;}.cls-2,.cls-8{fill:#e1e3e6;}.cls-2,.cls-6{mix-blend-mode:multiply;}.cls-3{fill:#f5f5f5;}.cls-4{fill:#5c6abd;}.cls-5{fill:#fff;}.cls-7{fill:#c5c5cc;}</style></defs><g class="cls-1"><g id="_ëîé_1" data-name="‘ëîé_1"><path class="cls-2" d="M1535.48,870.43H1373.54a42.36,42.36,0,0,0-42.36,42.36v2.84h-24a31,31,0,0,0-31,31V978a31,31,0,0,0,31,31h24v205.57a42.35,42.35,0,0,0,42.36,42.35h224.64a42.35,42.35,0,0,0,42.34-42.35V975.44l-22-22Z" transform="translate(-1276.12 -858.43)"/><path class="cls-3" d="M1652.52,963.44v239.18a42.35,42.35,0,0,1-42.34,42.36H1385.54a42.35,42.35,0,0,1-42.36-42.36V900.79a42.36,42.36,0,0,1,42.36-42.36h161.94l83,83Z" transform="translate(-1276.12 -858.43)"/><rect class="cls-4" x="12" y="45.2" width="208.27" height="93.43" rx="31.03"/><path class="cls-5" d="M1335.68,930.05a81,81,0,0,1,12.42-.85c7.72,0,12.72,1.39,16.64,4.34,4.23,3.14,6.88,8.15,6.88,15.32,0,7.78-2.83,13.15-6.76,16.47-4.28,3.56-10.79,5.24-18.75,5.24a80,80,0,0,1-10.43-.6Zm9.22,33.17a17,17,0,0,0,3.2.18c8.32.06,13.75-4.53,13.75-14.24.06-8.44-4.89-12.9-12.79-12.9a19.24,19.24,0,0,0-4.16.36Z" transform="translate(-1276.12 -858.43)"/><path class="cls-5" d="M1414.87,949.41c0,13.32-8.08,21.4-20,21.4-12.06,0-19.11-9.1-19.11-20.68,0-12.18,7.78-21.29,19.78-21.29C1408.05,928.84,1414.87,938.19,1414.87,949.41Zm-29.37.54c0,8,3.74,13.57,9.89,13.57s9.77-5.91,9.77-13.81c0-7.3-3.5-13.57-9.83-13.57S1385.5,942.05,1385.5,950Z" transform="translate(-1276.12 -858.43)"/><path class="cls-5" d="M1450.76,969c-1.69.84-5.49,1.75-10.44,1.75-14,0-21.28-8.75-21.28-20.33,0-13.87,9.89-21.59,22.19-21.59a24.05,24.05,0,0,1,10,1.81l-1.87,7.3a19.73,19.73,0,0,0-7.72-1.51c-7.3,0-13,4.4-13,13.45,0,8.14,4.83,13.27,13,13.27a23.08,23.08,0,0,0,7.66-1.33Z" transform="translate(-1276.12 -858.43)"/><g class="cls-6"><path class="cls-7" d="M1652.52,963.44l-51.85,11.45A42.37,42.37,0,0,1,1550.62,942l-2.17-11.88a41.25,41.25,0,0,1-1-9V886.92l83,54.53Z" transform="translate(-1276.12 -858.43)"/></g><path class="cls-8" d="M1652.52,963.44h-62.71a42.34,42.34,0,0,1-38.11-23.89,42.71,42.71,0,0,1-4.22-18.47V858.43l83,83Z" transform="translate(-1276.12 -858.43)"/><path class="cls-8" d="M1389.35,1067.38h102.91c5.85,0,11.46-5.15,11.19-11.19s-4.92-11.2-11.19-11.2H1389.35c-5.86,0-11.47,5.15-11.2,11.2s4.92,11.19,11.2,11.19Z" transform="translate(-1276.12 -858.43)"/><path class="cls-8" d="M1536.9,1067.38h66.52c5.86,0,11.47-5.15,11.2-11.19s-4.92-11.2-11.2-11.2H1536.9c-5.86,0-11.47,5.15-11.2,11.2s4.92,11.19,11.2,11.19Z" transform="translate(-1276.12 -858.43)"/><path class="cls-8" d="M1389.35,1180.14h122.78c5.7,0,11.41.12,17.1,0h.24c5.86,0,11.47-5.15,11.2-11.2s-4.92-11.2-11.2-11.2H1406.69c-5.69,0-11.41-.12-17.1,0h-.24c-5.86,0-11.47,5.15-11.2,11.2s4.92,11.2,11.2,11.2Z" transform="translate(-1276.12 -858.43)"/><path class="cls-8" d="M1603.42,1101.36h-102.9c-5.86,0-11.47,5.15-11.2,11.2s4.92,11.2,11.2,11.2h102.9c5.86,0,11.47-5.15,11.2-11.2s-4.92-11.2-11.2-11.2Z" transform="translate(-1276.12 -858.43)"/><path class="cls-8" d="M1455.88,1101.36h-66.53c-5.86,0-11.47,5.15-11.2,11.2s4.92,11.2,11.2,11.2h66.53c5.85,0,11.46-5.15,11.19-11.2s-4.92-11.2-11.19-11.2Z" transform="translate(-1276.12 -858.43)"/></g></g></svg>