<svg xmlns="http://www.w3.org/2000/svg" viewBox="0 0 376.4 398.55"><defs><style>.cls-1{isolation:isolate;}.cls-2,.cls-8{fill:#e1e3e6;}.cls-2,.cls-6{mix-blend-mode:multiply;}.cls-3{fill:#f5f5f5;}.cls-4{fill:#00acfe;}.cls-5{fill:#fff;}.cls-7{fill:#c5c5cc;}</style></defs><g class="cls-1"><g id="_ëîé_1" data-name="‘ëîé_1"><path class="cls-2" d="M993.8,870.43H831.86a42.36,42.36,0,0,0-42.36,42.36v2.84h-24a31,31,0,0,0-31,31V978a31,31,0,0,0,31,31h24v205.57A42.35,42.35,0,0,0,831.86,1257H1056.5a42.34,42.34,0,0,0,42.33-42.35V975.44l-22-22Z" transform="translate(-734.44 -858.43)"/><path class="cls-3" d="M1110.84,963.44v239.18A42.35,42.35,0,0,1,1068.5,1245H843.86a42.35,42.35,0,0,1-42.36-42.36V900.79a42.36,42.36,0,0,1,42.36-42.36H1005.8l83,83Z" transform="translate(-734.44 -858.43)"/><rect class="cls-4" x="12" y="45.2" width="208.27" height="93.43" rx="31.03"/><path class="cls-5" d="M802,929.5h9.17v25.7c0,11.57-5.55,15.61-14.47,15.61a24.1,24.1,0,0,1-6.7-1l1-7.42a15.16,15.16,0,0,0,4.7.73c3.86,0,6.27-1.75,6.27-8.09Z" transform="translate(-734.44 -858.43)"/><path class="cls-5" d="M818.78,930.05a74.41,74.41,0,0,1,12.43-.85c5.67,0,9.71,1.09,12.42,3.26a11.9,11.9,0,0,1,4.34,9.41,13,13,0,0,1-3.74,9.65c-3.13,3-7.78,4.28-13.2,4.28a23.24,23.24,0,0,1-3.14-.18v14.53h-9.11Zm9.11,18.45a14.12,14.12,0,0,0,3.08.24c4.88,0,7.9-2.47,7.9-6.63,0-3.74-2.6-6-7.18-6a15.72,15.72,0,0,0-3.8.36Z" transform="translate(-734.44 -858.43)"/><path class="cls-5" d="M887.78,968.28a45.3,45.3,0,0,1-13.57,2.29c-7.41,0-12.78-1.87-16.52-5.48s-5.79-8.81-5.73-14.78c.06-13.51,9.89-21.23,23.22-21.23a28.12,28.12,0,0,1,11.28,2l-1.94,7.36a22.4,22.4,0,0,0-9.46-1.75c-7.66,0-13.45,4.34-13.45,13.15,0,8.38,5.25,13.33,12.78,13.33a12.34,12.34,0,0,0,4.53-.61v-8.5h-6.27v-7.18h15.13Z" transform="translate(-734.44 -858.43)"/><g class="cls-6"><path class="cls-7" d="M1110.84,963.44,1059,974.89a42.37,42.37,0,0,1-50-32.92l-2.17-11.88a41.25,41.25,0,0,1-1-9V886.92l83,54.53Z" transform="translate(-734.44 -858.43)"/></g><path class="cls-8" d="M1110.84,963.44h-62.71A42.34,42.34,0,0,1,1010,939.55a42.71,42.71,0,0,1-4.22-18.47V858.43l83,83Z" transform="translate(-734.44 -858.43)"/><path class="cls-8" d="M1042.44,1171.75H882.54c-4.39,0-8.78-.07-13.16,0-1.4,0,1.7.41-.17,0l-.73-.2c-1-.24.21-.34.5.28-.1-.22-1.07-.54-1.3-.68a7.29,7.29,0,0,0-.82-.54c.32-.12,1.38,1.3.3.14-.16-.17-.34-.36-.51-.52-.81-.73.49-.06.31.47,0-.12-.69-1.06-.78-1.23a5.55,5.55,0,0,0-.44-.88c.21.09.59,1.82.28.5-.06-.25-.14-.48-.2-.73-.23-1,.29-.83,0,.35a13.11,13.11,0,0,0,0-2.25V1062.26c0-.28,0-.57,0-.85v-.19c0-.26,0-.53,0-.78,0-1-.45,1.7,0,.33.11-.39.72-2,.19-1s.28-.51.46-.82a5.93,5.93,0,0,0,.4-.62c.43-.84-1.11,1-.33.46.31-.21,1.79-1.62.79-.88s.5-.28.82-.46.45-.21.66-.33c.86-.53-1.5.45-.51.25a7.65,7.65,0,0,0,1.7-.43c-.05.09-1.67.09-.83.14-.23,0,1.5,0,.78,0h171.78c.51,0,1,0,1.54,0,1.06,0-1.59-.37-.58-.09l.73.16c-.07,0,1,.3,1,.29s-1.46-.76-.75-.32c.47.29,1,.56,1.49.83,1,.56-.52.09-.43-.35,0,.06.64.58.71.65s.64.72.66.72-.85-1.36-.5-.64c.25.5.6,1,.87,1.48.68,1.16-.47-1.51,0,.18.09.32.14.66.23,1,.26.91,0-1.55-.09-.58-.1,1.93,0,3.92,0,5.85v101.33h0c0-.08-.06,1,0,1s.35-1.66.11-.84a7.18,7.18,0,0,0-.46,1.69c0-1,.68-1.31.22-.53-.12.21-.22.44-.35.65s-.38.54-.52.82c-.35.73.39-.65.5-.63a9.14,9.14,0,0,0-1.19,1.21c-.53.78,1.3-.76.45-.33a5.81,5.81,0,0,0-.61.4c-.31.18-2,1-.82.46s-.57.08-1,.19c-1.15.35.39-.45.6,0,0,0-1.12,0-1,0-4.13.09-8.1,3.57-7.91,7.91s3.48,8,7.91,7.9a20.25,20.25,0,0,0,19.93-20.31c0-2.69,0-5.37,0-8.06v-78.32c0-6.63.18-13.29,0-19.91a20.24,20.24,0,0,0-20.19-19.68H870.75c-7.46,0-14.78,3.58-18.34,10.38-2.18,4.17-2.44,8.4-2.44,12.91v101.76c0,7.67,3.4,15.33,10.59,18.9a25,25,0,0,0,11.51,2.33h170.37c4.14,0,8.1-3.63,7.91-7.9A8.05,8.05,0,0,0,1042.44,1171.75Z" transform="translate(-734.44 -858.43)"/><path class="cls-8" d="M913.23,1182.63l19-19,36.6-36.6L993,1102.82l.64-.64c.22-.21.46-.4.67-.62.72-.75-1.59.85-.08.1.31-.15.63-.35.93-.52.88-.5.26.3-.44.17a7.35,7.35,0,0,0,1.52-.42c.89-.22.42.34-.56.06a5.25,5.25,0,0,0,1,0l1,0c-.1.25-1.91-.37-.3,0,.16,0,1.24.26,1.26.38s-1.79-1-.44-.14c.3.2.63.37.93.56,1.24.74-.24-.07-.28-.24,0,.19.61.54.75.66l13.19,11.51,32.64,28.48.69.59c3.11,2.72,8.15,3.3,11.18,0,2.73-3,3.32-8.28,0-11.18L1028.08,1106l-15.74-13.73a48.68,48.68,0,0,0-5.12-4.16c-7.74-5.08-18.17-3.47-24.67,2.79s-13,13-19.56,19.56l-37.25,37.25c-7.77,7.77-15.69,15.43-23.33,23.33l-.37.36c-2.92,2.93-3.14,8.3,0,11.19a8.07,8.07,0,0,0,11.19,0Z" transform="translate(-734.44 -858.43)"/><path class="cls-8" d="M865.16,1175.15,889,1145.91l4.31-5.28c.49-.6,1-1.14,1.53-1.73.84-.94-.15.16-.43.27a6,6,0,0,0,.83-.56c.28-.17.58-.31.86-.48,1.24-.71-.43.32-.53.22s3.13-.54,1.3-.42c-1.29.07-.16,0,.16,0h1.21c1.37,0-.55,0-.66-.11,0,.06.8.17.95.22-.06,0,.92.3.94.29-.24.22-1.55-.78-.52-.21.28.16.58.34.87.49,1.12.55-.17-.11-.35-.35a6.4,6.4,0,0,0,.82.72c.49.45,1,.92,1.44,1.38l7.19,6.92,14.5,13.92c3,2.87,8.25,3.19,11.18,0s3.18-8.12,0-11.18l-12.92-12.41-8-7.69c-2.33-2.25-4.63-4.52-7.65-5.87-7.72-3.45-17.27-2.11-23.08,4.38-1,1.15-2,2.39-2.94,3.59L865.38,1150,854,1164c-2.61,3.2-3.36,8.1,0,11.19,2.89,2.65,8.39,3.42,11.18,0Z" transform="translate(-734.44 -858.43)"/><path class="cls-8" d="M916.8,1088.59a6,6,0,0,1-.06.85c.1-.7.19-1.4.28-2.1a6.91,6.91,0,0,1-.44,1.6l.8-1.89a7.51,7.51,0,0,1-.83,1.39l1.23-1.6a6.56,6.56,0,0,1-1,1l1.6-1.24a6.32,6.32,0,0,1-1.39.83l1.89-.79a6.83,6.83,0,0,1-1.59.44l2.1-.28a7,7,0,0,1-1.71,0l2.1.28a6.7,6.7,0,0,1-1.59-.44l1.89.79a6.32,6.32,0,0,1-1.39-.83l1.6,1.24a7.09,7.09,0,0,1-1-1l1.24,1.6a7,7,0,0,1-.83-1.39c.26.63.53,1.26.8,1.89a6.93,6.93,0,0,1-.45-1.6c.1.7.19,1.4.28,2.1a6.91,6.91,0,0,1,0-1.7c-.09.7-.18,1.4-.28,2.1a6.93,6.93,0,0,1,.45-1.6l-.8,1.89a6.73,6.73,0,0,1,.83-1.39l-1.24,1.6a7.09,7.09,0,0,1,1-1l-1.6,1.24a6.32,6.32,0,0,1,1.39-.83l-1.89.79a6.7,6.7,0,0,1,1.59-.44l-2.1.28a7,7,0,0,1,1.71,0l-2.1-.28a6.83,6.83,0,0,1,1.59.44l-1.89-.79a6.32,6.32,0,0,1,1.39.83l-1.6-1.24a6.56,6.56,0,0,1,1,1l-1.23-1.6a7.2,7.2,0,0,1,.83,1.39l-.8-1.89a6.91,6.91,0,0,1,.44,1.6c-.09-.7-.18-1.4-.28-2.1a6,6,0,0,1,.06.85,8.18,8.18,0,0,0,2.32,5.59,7.9,7.9,0,0,0,13.49-5.59,19.73,19.73,0,0,0-.34-3,6.38,6.38,0,0,0-.24-1.05,13.17,13.17,0,0,0-1.68-3.63,20.71,20.71,0,0,0-1.75-2.21,17.3,17.3,0,0,0-2.26-1.84,13.73,13.73,0,0,0-3.5-1.72,6.16,6.16,0,0,0-1-.29,19.32,19.32,0,0,0-3-.39,6,6,0,0,0-1,0,19.08,19.08,0,0,0-3,.46,19.31,19.31,0,0,0-2.67,1.07,8.32,8.32,0,0,0-.93.5,13.59,13.59,0,0,0-3,2.53,18.8,18.8,0,0,0-1.7,2.26,17.44,17.44,0,0,0-1.21,2.68,13.9,13.9,0,0,0-.76,4,7,7,0,0,0,0,1.12,21.82,21.82,0,0,0,.43,3,6.9,6.9,0,0,0,.31.94,16.59,16.59,0,0,0,1.2,2.69,18.83,18.83,0,0,0,1.69,2.27,6.47,6.47,0,0,0,.72.76,13.56,13.56,0,0,0,3.22,2.29,19.28,19.28,0,0,0,2.66,1.09,18,18,0,0,0,3,.47,13.89,13.89,0,0,0,4.06-.32,6.21,6.21,0,0,0,1.19-.34,18.53,18.53,0,0,0,2.77-1.23,19.16,19.16,0,0,0,2.39-1.8,6.64,6.64,0,0,0,.79-.8,15.66,15.66,0,0,0,3.06-5.23,6.1,6.1,0,0,0,.31-1.11,19.27,19.27,0,0,0,.38-3.21,7.9,7.9,0,0,0-7.9-7.91,8,8,0,0,0-5.59,2.32A8.32,8.32,0,0,0,916.8,1088.59Z" transform="translate(-734.44 -858.43)"/></g></g></svg>