<svg xmlns="http://www.w3.org/2000/svg" viewBox="0 0 376.4 398.55"><defs><style>.cls-1{isolation:isolate;}.cls-2,.cls-8{fill:#e1e3e6;}.cls-2,.cls-6{mix-blend-mode:multiply;}.cls-3{fill:#f5f5f5;}.cls-4{fill:#f32153;}.cls-5{fill:#fff;}.cls-7{fill:#c5c5cc;}</style></defs><g class="cls-1"><g id="_ëîé_1" data-name="‘ëîé_1"><path class="cls-2" d="M2071.16,862.09H1909.22a42.35,42.35,0,0,0-42.36,42.35v2.85h-24a31,31,0,0,0-31,31v31.37a31,31,0,0,0,31,31h24v205.56a42.36,42.36,0,0,0,42.36,42.36h224.64a42.36,42.36,0,0,0,42.34-42.36V967.1l-22-22Z" transform="translate(-1811.8 -850.08)"/><path class="cls-3" d="M2188.2,955.1v239.18a42.35,42.35,0,0,1-42.33,42.36H1921.22a42.36,42.36,0,0,1-42.36-42.36V892.44a42.36,42.36,0,0,1,42.36-42.36h161.94l83.05,83Z" transform="translate(-1811.8 -850.08)"/><rect class="cls-4" x="12" y="45.2" width="208.27" height="93.43" rx="31.03"/><path class="cls-5" d="M1871.36,921.7a75.52,75.52,0,0,1,12.42-.84c5.67,0,9.71,1.08,12.42,3.25a11.87,11.87,0,0,1,4.35,9.41,13,13,0,0,1-3.74,9.65c-3.14,3-7.78,4.28-13.21,4.28a23.34,23.34,0,0,1-3.14-.18v14.54h-9.1Zm9.1,18.46a14.18,14.18,0,0,0,3.08.24c4.88,0,7.9-2.48,7.9-6.64,0-3.74-2.59-6-7.18-6a15.78,15.78,0,0,0-3.8.36Z" transform="translate(-1811.8 -850.08)"/><path class="cls-5" d="M1906.4,921.7a82.52,82.52,0,0,1,12.43-.84c7.71,0,12.72,1.38,16.64,4.34,4.22,3.13,6.88,8.14,6.88,15.32,0,7.78-2.84,13.14-6.76,16.46-4.28,3.56-10.79,5.25-18.75,5.25a80,80,0,0,1-10.44-.6Zm9.23,33.17a17,17,0,0,0,3.2.18c8.32.06,13.75-4.52,13.75-14.23.06-8.44-4.89-12.91-12.79-12.91a18.36,18.36,0,0,0-4.16.37Z" transform="translate(-1811.8 -850.08)"/><path class="cls-5" d="M1948.38,921.16h24.85v7.54h-15.62V938h14.59v7.48h-14.59v16.35h-9.23Z" transform="translate(-1811.8 -850.08)"/><g class="cls-6"><path class="cls-7" d="M2188.2,955.1l-51.85,11.45a42.37,42.37,0,0,1-50-32.93l-2.18-11.88a41.09,41.09,0,0,1-1-9V878.58l83.05,54.53Z" transform="translate(-1811.8 -850.08)"/></g><path class="cls-8" d="M2188.2,955.1h-62.71a42.33,42.33,0,0,1-38.11-23.9,42.71,42.71,0,0,1-4.22-18.46V850.08l83.05,83Z" transform="translate(-1811.8 -850.08)"/><path class="cls-8" d="M2000.72,1152.33c12.83-29.25,24.88-59.14,33.59-89.91,3.41-12,6.55-24.54,7.09-37.09.35-8.27-.87-19.17-9.32-23.23-5.3-2.53-11.45-1.81-16.59.8-6,3.07-8.72,9.46-9.18,15.88-.47,6.6,1.44,13.5,3.55,19.68a207.87,207.87,0,0,0,11,25.39c4.59,9.23,9.54,18.28,14.59,27.27a145.43,145.43,0,0,0,13.72,20.27c9.38,11.64,20.7,22.45,33.59,30.13,10.18,6.06,24.24,11.23,34.56,2.68,6-5,9.56-15.22,5.18-22.32-3.1-5-9-7.38-14.61-8.34a86.71,86.71,0,0,0-21.17-.67c-18.76,1.39-37.39,5.49-55.4,10.8-18.53,5.47-37.1,12.32-53.87,22-6.76,3.91-13.44,8.43-18.93,14-4.42,4.5-8.56,10.23-9.51,16.62-1.17,7.88,1.64,17.31,8.9,21.59,6.13,3.63,12.71,1.06,17.68-3.17,5.29-4.5,9.19-11,12.61-16.93a263.34,263.34,0,0,0,12.56-25.51c1.57-3.57,1.16-8.19-2.68-10.22-3.24-1.71-8.53-1.13-10.21,2.68a269.49,269.49,0,0,1-12.28,25,102.35,102.35,0,0,1-5.79,9.16c-.41.57-2,2.17-.43.61-.48.46-.86,1.07-1.3,1.57a31.39,31.39,0,0,1-2.67,2.74l-.62.53c-.93.83,1.43-.92.66-.51-.41.23-.78.55-1.2.79l-.58.31c-1,.59,1.77-.58,1-.4a6.31,6.31,0,0,0-1.24.35c1.21-.64,2.11-.19,1.1-.17a3.09,3.09,0,0,0-.43,0c-.7.09,2.31.53.72,0-.7-.22,2,1.07.56.18-1.26-.76,1.58,1.51.16.07a5.57,5.57,0,0,0-.46-.51c-.65-.53,1.17,1.73.53.69-.16-.26-.35-.5-.52-.76a18.81,18.81,0,0,1-1-1.69c-.13-.25-.23-.53-.36-.77,1.28,2.32.64,1.63.38.85-.18-.56-.36-1.12-.49-1.7-.06-.26-.1-.52-.15-.78-.27-1.25.2,2.36.15,1.06,0-.55-.07-1.09-.06-1.64,0-1.11.46-2.41-.11.27.11-.54.19-1.09.33-1.64s.31-1,.49-1.55c.25-.73.89-1.65-.38.85.15-.31.28-.63.43-.94a24.87,24.87,0,0,1,1.92-3.26c.18-.26.37-.51.56-.77.8-1.13-1.37,1.69-.46.59.47-.57.94-1.14,1.44-1.7,1-1.06,2-2.07,3-3.05s2.44-2.14,3.71-3.16l.57-.45c.11-.09-1.74,1.31-.93.72l1-.74q1.13-.84,2.28-1.62a142.66,142.66,0,0,1,20.81-11.62c2-.94,4-1.84,6.08-2.72.55-.24,2.56-1.06,0,0,.51-.2,1-.41,1.5-.62,1.11-.46,2.23-.91,3.34-1.35,4.25-1.69,8.55-3.26,12.87-4.74a301.43,301.43,0,0,1,53.16-13.22c1-.15,1.95-.28,2.92-.42l-1.13.15.86-.11,1.56-.19c1.87-.22,3.74-.42,5.62-.58,3.48-.29,7-.48,10.48-.48a75.18,75.18,0,0,1,8.61.49c.91.1-2.48-.38-.88-.12l.89.15c.62.11,1.23.23,1.85.38,1.06.25,2.07.58,3.1.93,1.35.46-1.76-.82-1-.43l.62.28c.41.21.82.43,1.21.68.17.11.33.24.5.34.93.57-1.73-1.53-1-.74.27.27.55.55.83.81.84.77-1.23-1.85-.77-1,.08.15.2.28.28.43s.15.31.24.45c.62,1-.69-2.18-.49-1.17a8.6,8.6,0,0,0,.25,1c-.48-1.47-.21-2.16-.19-.69,0,.2,0,.39,0,.58,0,.78.48-2.52.16-1.28-.21.82-.49,1.61-.72,2.42-.28,1,.35-.8.38-.85a6.26,6.26,0,0,0-.4.87,14.52,14.52,0,0,1-.76,1.32c-.1.16-.23.32-.33.48-.63,1,1.33-1.46.48-.61-.39.38-.78.77-1.15,1.16-.61.62,1.84-1.24.24-.23-.37.24-.76.42-1.14.63-.76.43,2.15-.75.32-.18-.47.15-1,.23-1.43.35-1.35.34,2.25-.1.33-.07-.48,0-1,0-1.44,0s-1-.06-1.5-.1c-.67,0-1.29-.41.9.13-.31-.07-.63-.1-.95-.16a30.79,30.79,0,0,1-3.27-.85c-.58-.18-1.15-.37-1.71-.58l-1-.4c-1.23-.45,1.67.75.38.16a67.28,67.28,0,0,1-7.68-4.1q-1.92-1.18-3.78-2.48c-.64-.44-1.28-.9-1.91-1.35l-.76-.57-.77-.57.37.28a8.14,8.14,0,0,1-1.92-1.52l-1.91-1.58q-2-1.73-4-3.52a145.32,145.32,0,0,1-14.79-15.79c-.54-.68-1.1-1.35-1.61-2,1.26,1.72-.46-.63-.71-1-1.11-1.5-2.18-3-3.23-4.57-2.1-3.14-4-6.39-5.84-9.69-4.77-8.5-9.46-17-13.84-25.76-2-4-4-8.09-5.82-12.21l-1.2-2.76c-.77-1.77.4,1,0-.11-.18-.45-.37-.89-.55-1.34q-1.14-2.81-2.16-5.67a79.62,79.62,0,0,1-2.79-9.55c-.16-.7-.3-1.4-.42-2.11-.06-.34-.11-.68-.17-1-.24-1.46.15,1.61.09.6-.07-1.29-.23-2.55-.19-3.85,0-.56.07-1.11.1-1.67.06-1.34-.42,2-.09.73,0-.2.08-.41.12-.6.11-.49.27-1,.4-1.42.26-.87.75-.67-.33.73a6.45,6.45,0,0,0,.38-.74c.14-.23.3-.45.43-.69.31-.55.85-.37-.68.87a8.53,8.53,0,0,0,.93-1c.79-.88-1.68,1.08-.65.48.16-.09.31-.21.47-.31s.5-.27.75-.42c.67-.38,1.32-.12-.69.28,1-.2,2.08-.53,3.08-.78-2.47.63-1.62.18-.72.14.4,0,.79,0,1.19,0,1.37,0-2.19-.54-.89-.11.27.09.57.16.84.23,1.25.3-1.92-1.07-.84-.36.24.16.53.34.79.48-.35-.18-1.67-1.53-.74-.53.19.2.39.43.59.62-.3-.27-1.23-1.86-.53-.65.17.29.35.58.51.88.77,1.5,0-.6-.26-.7.15.06.29.8.35,1a19.86,19.86,0,0,1,.59,2.42c.13.74.17,2.32,0-.52,0,.43.1.86.14,1.3.08,1,.12,2,.13,3.08a63.06,63.06,0,0,1-.34,6.73c0,.58-.12,1.17-.18,1.75s-.43,2.87,0,.19c-.2,1.32-.39,2.65-.61,4-.48,2.8-1,5.59-1.66,8.37a370.12,370.12,0,0,1-11.73,39.92c-5,14.47-10.51,28.76-16.34,42.91-.68,1.67-1.38,3.34-2.07,5-.18.41-.35.82-.52,1.24,0,.1-.73,1.73-.25.58s-.2.48-.24.58c-.18.41-.35.82-.52,1.22q-2.08,4.89-4.21,9.74c-1.57,3.57-1.17,8.19,2.68,10.22C1993.74,1156.72,1999.05,1156.15,2000.72,1152.33Z" transform="translate(-1811.8 -850.08)"/></g></g></svg>