<svg xmlns="http://www.w3.org/2000/svg" viewBox="0 0 376.4 398.55"><defs><style>.cls-1{isolation:isolate;}.cls-2,.cls-8{fill:#e1e3e6;}.cls-2,.cls-6{mix-blend-mode:multiply;}.cls-3{fill:#f5f5f5;}.cls-4{fill:#00acfe;}.cls-5{fill:#fff;}.cls-7{fill:#c5c5cc;}</style></defs><g class="cls-1"><g id="_ëîé_1" data-name="‘ëîé_1"><path class="cls-2" d="M555.23,958l-83.05-83H310.25a42.35,42.35,0,0,0-42.36,42.36v2.84h-24a31,31,0,0,0-31,31v31.36a31,31,0,0,0,31,31h24v205.56a42.35,42.35,0,0,0,42.36,42.36H534.89a42.35,42.35,0,0,0,42.33-42.36V980Z" transform="translate(-212.82 -862.99)"/><path class="cls-3" d="M589.22,968v239.19a42.35,42.35,0,0,1-42.33,42.36H322.25a42.36,42.36,0,0,1-42.36-42.36V905.35A42.36,42.36,0,0,1,322.25,863H484.18l83.06,83Z" transform="translate(-212.82 -862.99)"/><rect class="cls-4" x="12" y="45.2" width="208.27" height="93.43" rx="31.03"/><path class="cls-5" d="M272.38,934.61a75.37,75.37,0,0,1,12.42-.85c5.67,0,9.71,1.09,12.43,3.26a11.9,11.9,0,0,1,4.34,9.41,13,13,0,0,1-3.74,9.65c-3.14,2.95-7.78,4.28-13.21,4.28a23.19,23.19,0,0,1-3.13-.18v14.53h-9.11Zm9.11,18.45a14.08,14.08,0,0,0,3.07.24c4.89,0,7.9-2.47,7.9-6.63,0-3.74-2.59-6-7.17-6a15.72,15.72,0,0,0-3.8.36Z" transform="translate(-212.82 -862.99)"/><path class="cls-5" d="M307.43,974.71V934.07h10.73L326.6,949a118.48,118.48,0,0,1,6.64,13.93h.18a149,149,0,0,1-.79-16.94V934.07h8.45v40.64h-9.65L322.74,959a151.67,151.67,0,0,1-7.05-14.35l-.18.06c.24,5.37.36,11.1.36,17.73v12.24Z" transform="translate(-212.82 -862.99)"/><path class="cls-5" d="M383,972.84a45.37,45.37,0,0,1-13.57,2.3c-7.42,0-12.79-1.87-16.53-5.49s-5.79-8.81-5.73-14.78c.06-13.51,9.89-21.23,23.22-21.23a28.09,28.09,0,0,1,11.28,2L379.74,943a22.61,22.61,0,0,0-9.47-1.75c-7.66,0-13.45,4.34-13.45,13.15,0,8.38,5.25,13.33,12.79,13.33a12.06,12.06,0,0,0,4.52-.61v-8.5h-6.27v-7.18H383Z" transform="translate(-212.82 -862.99)"/><g class="cls-6"><path class="cls-7" d="M589.22,968l-51.85,11.45a42.36,42.36,0,0,1-50-32.92l-2.18-11.88a41.81,41.81,0,0,1-1-9V891.48L567.24,946Z" transform="translate(-212.82 -862.99)"/></g><path class="cls-8" d="M589.22,968h-62.7a42.34,42.34,0,0,1-38.12-23.89,41.32,41.32,0,0,1-3.25-9.46,41.81,41.81,0,0,1-1-9V863l83.06,83Z" transform="translate(-212.82 -862.99)"/><rect class="cls-8" x="119.58" y="186.02" width="29.19" height="29.19"/><path class="cls-8" d="M361.59,1076.43H332.41l1.76,1.77V1049l-1.76,1.77h29.18l-1.76-1.77v29.19a1.77,1.77,0,0,0,3.53,0V1049a1.79,1.79,0,0,0-1.77-1.76H332.41a1.78,1.78,0,0,0-1.77,1.76v29.19a1.79,1.79,0,0,0,1.77,1.76h29.18A1.77,1.77,0,0,0,361.59,1076.43Z" transform="translate(-212.82 -862.99)"/><rect class="cls-8" x="148.77" y="215.2" width="29.19" height="29.19"/><path class="cls-8" d="M390.78,1105.62H361.59l1.77,1.76V1078.2l-1.77,1.76h29.19L389,1078.2v29.18a1.77,1.77,0,0,0,3.53,0V1078.2a1.79,1.79,0,0,0-1.76-1.77H361.59a1.79,1.79,0,0,0-1.76,1.77v29.18a1.8,1.8,0,0,0,1.76,1.77h29.19A1.77,1.77,0,0,0,390.78,1105.62Z" transform="translate(-212.82 -862.99)"/><rect class="cls-8" x="177.95" y="186.02" width="29.19" height="29.19"/><path class="cls-8" d="M420,1076.43H390.78l1.76,1.77V1049l-1.76,1.77H420L418.2,1049v29.19a1.77,1.77,0,0,0,3.53,0V1049a1.79,1.79,0,0,0-1.77-1.76H390.78A1.78,1.78,0,0,0,389,1049v29.19a1.79,1.79,0,0,0,1.77,1.76H420A1.77,1.77,0,0,0,420,1076.43Z" transform="translate(-212.82 -862.99)"/><rect class="cls-8" x="207.14" y="215.2" width="29.19" height="29.19"/><path class="cls-8" d="M449.15,1105.62H420l1.77,1.76V1078.2L420,1080h29.19l-1.77-1.76v29.18a1.77,1.77,0,0,0,3.53,0V1078.2a1.79,1.79,0,0,0-1.76-1.77H420a1.79,1.79,0,0,0-1.76,1.77v29.18a1.8,1.8,0,0,0,1.76,1.77h29.19A1.77,1.77,0,0,0,449.15,1105.62Z" transform="translate(-212.82 -862.99)"/><rect class="cls-8" x="236.32" y="186.02" width="29.19" height="29.19"/><path class="cls-8" d="M478.33,1076.43H449.15l1.76,1.77V1049l-1.76,1.77h29.18l-1.76-1.77v29.19a1.77,1.77,0,0,0,3.53,0V1049a1.79,1.79,0,0,0-1.77-1.76H449.15a1.78,1.78,0,0,0-1.77,1.76v29.19a1.79,1.79,0,0,0,1.77,1.76h29.18A1.77,1.77,0,0,0,478.33,1076.43Z" transform="translate(-212.82 -862.99)"/><rect class="cls-8" x="265.51" y="215.2" width="29.19" height="29.19"/><path class="cls-8" d="M507.52,1105.62H478.33l1.77,1.76V1078.2l-1.77,1.76h29.19l-1.77-1.76v29.18a1.77,1.77,0,0,0,3.53,0V1078.2a1.79,1.79,0,0,0-1.76-1.77H478.33a1.79,1.79,0,0,0-1.76,1.77v29.18a1.8,1.8,0,0,0,1.76,1.77h29.19A1.77,1.77,0,0,0,507.52,1105.62Z" transform="translate(-212.82 -862.99)"/><rect class="cls-8" x="119.58" y="244.39" width="29.19" height="29.19"/><path class="cls-8" d="M361.59,1134.8H332.41l1.76,1.77v-29.19l-1.76,1.77h29.18l-1.76-1.77v29.19a1.77,1.77,0,0,0,3.53,0v-29.19a1.79,1.79,0,0,0-1.77-1.76H332.41a1.78,1.78,0,0,0-1.77,1.76v29.19a1.79,1.79,0,0,0,1.77,1.76h29.18A1.77,1.77,0,0,0,361.59,1134.8Z" transform="translate(-212.82 -862.99)"/><rect class="cls-8" x="148.77" y="273.57" width="29.19" height="29.19"/><path class="cls-8" d="M390.78,1164H361.59l1.77,1.76v-29.18l-1.77,1.76h29.19l-1.77-1.76v29.18a1.77,1.77,0,0,0,3.53,0v-29.18a1.79,1.79,0,0,0-1.76-1.77H361.59a1.79,1.79,0,0,0-1.76,1.77v29.18a1.79,1.79,0,0,0,1.76,1.77h29.19A1.77,1.77,0,0,0,390.78,1164Z" transform="translate(-212.82 -862.99)"/><rect class="cls-8" x="177.95" y="244.39" width="29.19" height="29.19"/><path class="cls-8" d="M420,1134.8H390.78l1.76,1.77v-29.19l-1.76,1.77H420l-1.76-1.77v29.19a1.77,1.77,0,0,0,3.53,0v-29.19a1.79,1.79,0,0,0-1.77-1.76H390.78a1.78,1.78,0,0,0-1.77,1.76v29.19a1.79,1.79,0,0,0,1.77,1.76H420A1.77,1.77,0,0,0,420,1134.8Z" transform="translate(-212.82 -862.99)"/><rect class="cls-8" x="207.14" y="273.57" width="29.19" height="29.19"/><path class="cls-8" d="M449.15,1164H420l1.77,1.76v-29.18l-1.77,1.76h29.19l-1.77-1.76v29.18a1.77,1.77,0,0,0,3.53,0v-29.18a1.79,1.79,0,0,0-1.76-1.77H420a1.79,1.79,0,0,0-1.76,1.77v29.18a1.79,1.79,0,0,0,1.76,1.77h29.19A1.77,1.77,0,0,0,449.15,1164Z" transform="translate(-212.82 -862.99)"/><rect class="cls-8" x="236.32" y="244.39" width="29.19" height="29.19"/><path class="cls-8" d="M478.33,1134.8H449.15l1.76,1.77v-29.19l-1.76,1.77h29.18l-1.76-1.77v29.19a1.77,1.77,0,0,0,3.53,0v-29.19a1.79,1.79,0,0,0-1.77-1.76H449.15a1.78,1.78,0,0,0-1.77,1.76v29.19a1.79,1.79,0,0,0,1.77,1.76h29.18A1.77,1.77,0,0,0,478.33,1134.8Z" transform="translate(-212.82 -862.99)"/><rect class="cls-8" x="265.51" y="273.57" width="29.19" height="29.19"/><path class="cls-8" d="M507.52,1164H478.33l1.77,1.76v-29.18l-1.77,1.76h29.19l-1.77-1.76v29.18a1.77,1.77,0,0,0,3.53,0v-29.18a1.79,1.79,0,0,0-1.76-1.77H478.33a1.79,1.79,0,0,0-1.76,1.77v29.18a1.79,1.79,0,0,0,1.76,1.77h29.19A1.77,1.77,0,0,0,507.52,1164Z" transform="translate(-212.82 -862.99)"/><rect class="cls-8" x="119.58" y="302.76" width="29.19" height="29.19"/><path class="cls-8" d="M361.59,1193.17H332.41l1.76,1.77v-29.19l-1.76,1.77h29.18l-1.76-1.77v29.19a1.77,1.77,0,0,0,3.53,0v-29.19a1.79,1.79,0,0,0-1.77-1.76H332.41a1.79,1.79,0,0,0-1.77,1.76v29.19a1.79,1.79,0,0,0,1.77,1.76h29.18A1.77,1.77,0,0,0,361.59,1193.17Z" transform="translate(-212.82 -862.99)"/><rect class="cls-8" x="177.95" y="302.76" width="29.19" height="29.19"/><path class="cls-8" d="M420,1193.17H390.78l1.76,1.77v-29.19l-1.76,1.77H420l-1.76-1.77v29.19a1.77,1.77,0,0,0,3.53,0v-29.19A1.79,1.79,0,0,0,420,1164H390.78a1.79,1.79,0,0,0-1.77,1.76v29.19a1.79,1.79,0,0,0,1.77,1.76H420A1.77,1.77,0,0,0,420,1193.17Z" transform="translate(-212.82 -862.99)"/><rect class="cls-8" x="236.32" y="302.76" width="29.19" height="29.19"/><path class="cls-8" d="M478.33,1193.17H449.15l1.76,1.77v-29.19l-1.76,1.77h29.18l-1.76-1.77v29.19a1.77,1.77,0,0,0,3.53,0v-29.19a1.79,1.79,0,0,0-1.77-1.76H449.15a1.79,1.79,0,0,0-1.77,1.76v29.19a1.79,1.79,0,0,0,1.77,1.76h29.18A1.77,1.77,0,0,0,478.33,1193.17Z" transform="translate(-212.82 -862.99)"/><rect class="cls-8" x="294.69" y="186.02" width="29.19" height="29.19"/><path class="cls-8" d="M536.7,1076.43H507.52l1.76,1.77V1049l-1.76,1.77H536.7l-1.76-1.77v29.19a1.77,1.77,0,0,0,3.53,0V1049a1.79,1.79,0,0,0-1.77-1.76H507.52a1.78,1.78,0,0,0-1.77,1.76v29.19a1.79,1.79,0,0,0,1.77,1.76H536.7A1.77,1.77,0,0,0,536.7,1076.43Z" transform="translate(-212.82 -862.99)"/><rect class="cls-8" x="294.69" y="244.39" width="29.19" height="29.19"/><path class="cls-8" d="M536.7,1134.8H507.52l1.76,1.77v-29.19l-1.76,1.77H536.7l-1.76-1.77v29.19a1.77,1.77,0,0,0,3.53,0v-29.19a1.79,1.79,0,0,0-1.77-1.76H507.52a1.78,1.78,0,0,0-1.77,1.76v29.19a1.79,1.79,0,0,0,1.77,1.76H536.7A1.77,1.77,0,0,0,536.7,1134.8Z" transform="translate(-212.82 -862.99)"/><rect class="cls-8" x="294.69" y="302.76" width="29.19" height="29.19"/><path class="cls-8" d="M536.7,1193.17H507.52l1.76,1.77v-29.19l-1.76,1.77H536.7l-1.76-1.77v29.19a1.77,1.77,0,0,0,3.53,0v-29.19a1.79,1.79,0,0,0-1.77-1.76H507.52a1.79,1.79,0,0,0-1.77,1.76v29.19a1.79,1.79,0,0,0,1.77,1.76H536.7A1.77,1.77,0,0,0,536.7,1193.17Z" transform="translate(-212.82 -862.99)"/></g></g></svg>