<svg width="167" height="98" viewBox="0 0 167 98" fill="none" xmlns="http://www.w3.org/2000/svg">
<path id="Vector" d="M15.1667 97.3334C10.9958 97.3334 7.4241 96.141 4.45143 93.7563C1.47876 91.3717 -0.00504268 88.5085 1.28749e-05 85.1667V12.1667C1.28749e-05 8.82084 1.48635 5.95559 4.45901 3.57093C7.43168 1.18626 11.0009 -0.00404523 15.1667 1.03282e-05H136.5C140.671 1.03282e-05 144.243 1.19234 147.215 3.57701C150.188 5.96168 151.672 8.8249 151.667 12.1667V36.3479H144.083L136.5 36.5V24.3333L75.8334 54.75L15.1667 24.3333V85.1667H106.167V97.3334H15.1667ZM75.8334 42.5833L136.5 12.1667H15.1667L75.8334 42.5833ZM128.917 97.3334C126.768 97.3334 124.966 96.7493 123.51 95.5813C122.054 94.4133 121.328 92.9696 121.333 91.25V73C121.333 71.2764 122.061 69.8306 123.517 68.6626C124.973 67.4946 126.773 66.9126 128.917 66.9167V60.8333C128.917 57.4875 130.403 54.6223 133.376 52.2376C136.348 49.8529 139.918 48.6626 144.083 48.6667C148.254 48.6667 151.826 49.859 154.799 52.2437C157.771 54.6283 159.255 57.4916 159.25 60.8333V66.9167C161.399 66.9167 163.201 67.5007 164.657 68.6687C166.113 69.8367 166.838 71.2805 166.833 73V91.25C166.833 92.9736 166.105 94.4194 164.649 95.5874C163.193 96.7554 161.394 97.3374 159.25 97.3334H128.917ZM136.5 66.9167H151.667V60.8333C151.667 59.1097 150.939 57.6639 149.483 56.4959C148.027 55.3279 146.227 54.746 144.083 54.75C141.935 54.75 140.132 55.334 138.676 56.502C137.22 57.67 136.495 59.1138 136.5 60.8333V66.9167Z" fill="#F5F5F5"/>
</svg>
