<svg width="16" height="16" viewBox="0 0 16 16" fill="none" xmlns="http://www.w3.org/2000/svg">
<path id="Vector" d="M12.5714 10C11.764 10 11.0219 10.2443 10.4361 10.653L6.77586 8.65128C6.88425 8.22226 6.88425 7.77771 6.77586 7.34869L10.4361 5.347C11.0219 5.75566 11.764 6 12.5714 6C14.465 6 16 4.65684 16 3C16 1.34316 14.465 0 12.5714 0C10.6779 0 9.14286 1.34316 9.14286 3C9.14286 3.22369 9.17107 3.44156 9.22414 3.65128L5.56393 5.65297C4.97811 5.24434 4.236 5 3.42857 5C1.53504 5 0 6.34316 0 8C0 9.65684 1.53504 11 3.42857 11C4.236 11 4.97811 10.7557 5.56393 10.347L9.22414 12.3487C9.17004 12.5626 9.14279 12.781 9.14286 13C9.14286 14.6568 10.6779 16 12.5714 16C14.465 16 16 14.6568 16 13C16 11.3432 14.465 10 12.5714 10Z" fill="white"/>
</svg>
