<svg xmlns="http://www.w3.org/2000/svg" viewBox="0 0 376.4 398.55"><defs><style>.cls-1{isolation:isolate;}.cls-2,.cls-8{fill:#e1e3e6;}.cls-2,.cls-6{mix-blend-mode:multiply;}.cls-3{fill:#f5f5f5;}.cls-4{fill:#00acfe;}.cls-5{fill:#fff;}.cls-7{fill:#c5c5cc;}</style></defs><g class="cls-1"><g id="_ëîé_1" data-name="‘ëîé_1"><path class="cls-2" d="M2606.84,870.72H2444.9a42.36,42.36,0,0,0-42.36,42.36v2.84h-24a31,31,0,0,0-31,31v31.36a31,31,0,0,0,31,31h24v205.56a42.36,42.36,0,0,0,42.36,42.36h224.65a42.35,42.35,0,0,0,42.33-42.36V975.73l-22-22Z" transform="translate(-2347.48 -858.72)"/><path class="cls-3" d="M2723.88,963.73v239.19a42.35,42.35,0,0,1-42.33,42.36H2456.9a42.35,42.35,0,0,1-42.35-42.36V901.08a42.35,42.35,0,0,1,42.35-42.36h161.94l83,83Z" transform="translate(-2347.48 -858.72)"/><rect class="cls-4" x="12" y="45.2" width="208.27" height="93.43" rx="31.03"/><path class="cls-5" d="M2414.88,937.52H2404V929.8h31.24v7.72h-11.09v32.92h-9.23Z" transform="translate(-2347.48 -858.72)"/><path class="cls-5" d="M2462.59,970.44l-3.68-7.35c-1.51-2.84-2.47-5-3.62-7.3h-.12c-.85,2.35-1.87,4.46-3.14,7.3l-3.37,7.35h-10.5l11.76-20.56-11.34-20.08h10.56l3.56,7.41c1.2,2.48,2.11,4.47,3.07,6.76h.12c1-2.59,1.75-4.4,2.78-6.76l3.43-7.41h10.5l-11.46,19.84,12.06,20.8Z" transform="translate(-2347.48 -858.72)"/><path class="cls-5" d="M2486.35,937.52h-10.91V929.8h31.24v7.72h-11.1v32.92h-9.23Z" transform="translate(-2347.48 -858.72)"/><g class="cls-6"><path class="cls-7" d="M2723.88,963.73,2672,975.18a42.36,42.36,0,0,1-50-32.92l-2.18-11.88a41.19,41.19,0,0,1-1-9V887.21l83,54.54Z" transform="translate(-2347.48 -858.72)"/></g><path class="cls-8" d="M2723.88,963.73h-62.71a42.33,42.33,0,0,1-38.11-23.89,42.71,42.71,0,0,1-4.22-18.47V858.72l83,83Z" transform="translate(-2347.48 -858.72)"/><path class="cls-8" d="M2467.06,1057.71h81.74c4.36,0,8.55-3.84,8.34-8.35a8.48,8.48,0,0,0-8.34-8.34h-81.74c-4.36,0-8.54,3.84-8.34,8.34a8.5,8.5,0,0,0,8.34,8.35Z" transform="translate(-2347.48 -858.72)"/><path class="cls-8" d="M2467.06,1099.61h81.74c4.36,0,8.55-3.84,8.34-8.35a8.48,8.48,0,0,0-8.34-8.34h-81.74c-4.36,0-8.54,3.83-8.34,8.34a8.5,8.5,0,0,0,8.34,8.35Z" transform="translate(-2347.48 -858.72)"/><path class="cls-8" d="M2467.06,1141.51h81.74c4.36,0,8.55-3.84,8.34-8.35a8.48,8.48,0,0,0-8.34-8.34h-81.74c-4.36,0-8.54,3.83-8.34,8.34a8.5,8.5,0,0,0,8.34,8.35Z" transform="translate(-2347.48 -858.72)"/><path class="cls-8" d="M2467.06,1183.41h81.74c4.36,0,8.55-3.84,8.34-8.35a8.48,8.48,0,0,0-8.34-8.34h-81.74c-4.36,0-8.54,3.83-8.34,8.34a8.5,8.5,0,0,0,8.34,8.35Z" transform="translate(-2347.48 -858.72)"/><path class="cls-8" d="M2589.63,1183.41h81.73c4.37,0,8.55-3.84,8.35-8.35a8.5,8.5,0,0,0-8.35-8.34h-81.73c-4.37,0-8.55,3.83-8.35,8.34a8.5,8.5,0,0,0,8.35,8.35Z" transform="translate(-2347.48 -858.72)"/><path class="cls-8" d="M2671.36,1041h-81.73a8.46,8.46,0,0,0-8.35,8.34v81.74a8.46,8.46,0,0,0,8.35,8.34h81.73a8.47,8.47,0,0,0,8.35-8.34v-81.74c0-4.36-3.84-8.54-8.35-8.34a8.48,8.48,0,0,0-8.34,8.34v81.74l8.34-8.35h-81.73l8.34,8.35v-81.74l-8.34,8.35h81.73c4.37,0,8.55-3.84,8.35-8.35A8.5,8.5,0,0,0,2671.36,1041Z" transform="translate(-2347.48 -858.72)"/></g></g></svg>