<svg width="70" height="61" viewBox="0 0 70 61" fill="none" xmlns="http://www.w3.org/2000/svg">
<path id="Vector" d="M37.5037 60.2393V43.0964H47.5044L35.0035 25.9535L22.5026 43.0964H32.5033V60.2393H20.0024V60.0964C19.5824 60.125 19.1823 60.2393 18.7523 60.2393C13.7792 60.2393 9.00968 57.9816 5.49312 53.963C1.97656 49.9443 0.000976563 44.4939 0.000976562 38.8107C0.000976563 27.8164 7.2765 18.8564 16.6122 17.6278C17.4307 12.7381 19.7146 8.32708 23.0712 5.15354C26.4277 1.98 30.6471 0.242275 35.0035 0.239258C39.3605 0.242044 43.5805 1.97956 46.9379 5.15303C50.2953 8.3265 52.5802 12.7376 53.3998 17.6278C62.7355 18.8564 70.001 27.8164 70.001 38.8107C70.001 44.4939 68.0254 49.9443 64.5088 53.963C60.9923 57.9816 56.2228 60.2393 51.2496 60.2393C50.8296 60.2393 50.4246 60.125 49.9995 60.0964V60.2393H37.5037Z" fill="#F5F5F5"/>
</svg>
