<svg width="23" height="24" viewBox="0 0 23 24" fill="none" xmlns="http://www.w3.org/2000/svg">
<path opacity="0.4" d="M21.7895 9.828H18.2911C15.4221 9.828 13.0858 7.512 13.0858 4.668V1.2C13.0858 0.54 12.5411 0 11.8753 0H6.74263C3.01421 0 0 2.4 0 6.684V17.316C0 21.6 3.01421 24 6.74263 24H16.2574C19.9858 24 23 21.6 23 17.316V11.028C23 10.368 22.4553 9.828 21.7895 9.828Z" fill="#3884F6"/>
<path d="M16.099 0.251406C15.6026 -0.240594 14.7432 0.0954058 14.7432 0.779406V4.9674C14.7432 6.7194 16.2442 8.1714 18.0721 8.1714C19.2221 8.1834 20.82 8.1834 22.1879 8.1834C22.8779 8.1834 23.2411 7.3794 22.7569 6.8994C21.0137 5.1594 17.8905 2.02741 16.099 0.251406Z" fill="#3884F6"/>
<path d="M10.9296 12.5644L8.50852 10.1644C8.49641 10.1524 8.4843 10.1524 8.4843 10.1404C8.41167 10.0684 8.31483 10.0084 8.21799 9.96039C8.20588 9.96039 8.20588 9.96039 8.19378 9.96039C8.09694 9.92439 8.00009 9.91239 7.90325 9.90039C7.86694 9.90039 7.84272 9.90039 7.80641 9.90039C7.73378 9.90039 7.64904 9.92439 7.57641 9.94839C7.54009 9.96039 7.51588 9.97239 7.49167 9.98439C7.39483 10.0324 7.29799 10.0804 7.22536 10.1644L4.80431 12.5644C4.45325 12.9124 4.45325 13.4884 4.80431 13.8364C5.15536 14.1844 5.73641 14.1844 6.08746 13.8364L6.95904 12.9724V18.0004C6.95904 18.4924 7.37062 18.9004 7.86694 18.9004C8.36325 18.9004 8.77483 18.4924 8.77483 18.0004V12.9724L9.64647 13.8364C9.82805 14.0164 10.058 14.1004 10.288 14.1004C10.518 14.1004 10.748 14.0164 10.9296 13.8364C11.2807 13.4884 11.2807 12.9124 10.9296 12.5644Z" fill="#3884F6"/>
</svg>
