<svg xmlns="http://www.w3.org/2000/svg" viewBox="0 0 376.4 398.55"><defs><style>.cls-1{isolation:isolate;}.cls-2,.cls-8{fill:#e1e3e6;}.cls-2,.cls-6{mix-blend-mode:multiply;}.cls-3{fill:#f5f5f5;}.cls-4{fill:#a2d500;}.cls-5{fill:#fff;}.cls-7{fill:#c5c5cc;}</style></defs><g class="cls-1"><g id="_ëîé_1" data-name="‘ëîé_1"><path class="cls-2" d="M3148.52,870.72H2986.58a42.35,42.35,0,0,0-42.35,42.36v2.84h-24a31,31,0,0,0-31,31v31.36a31,31,0,0,0,31,31h24v205.56a42.35,42.35,0,0,0,42.35,42.36h224.65a42.35,42.35,0,0,0,42.33-42.36V975.73l-22-22Z" transform="translate(-2889.16 -858.72)"/><path class="cls-3" d="M3265.56,963.73v239.19a42.35,42.35,0,0,1-42.33,42.36H2998.59a42.36,42.36,0,0,1-42.36-42.36V901.08a42.36,42.36,0,0,1,42.36-42.36h161.93l83.06,83Z" transform="translate(-2889.16 -858.72)"/><rect class="cls-4" x="12" y="45.2" width="208.27" height="93.43" rx="31.03"/><path class="cls-5" d="M2970.13,970.44l-3.68-7.35c-1.51-2.84-2.47-5-3.62-7.3h-.12c-.84,2.35-1.87,4.46-3.14,7.3l-3.37,7.35h-10.5l11.76-20.56-11.33-20.08h10.55l3.56,7.41c1.2,2.48,2.11,4.47,3.07,6.76h.12c1-2.59,1.75-4.4,2.78-6.76l3.44-7.41h10.49l-11.46,19.84,12.06,20.8Z" transform="translate(-2889.16 -858.72)"/><path class="cls-5" d="M2985.69,929.8h9.23v32.92h16.16v7.72h-25.39Z" transform="translate(-2889.16 -858.72)"/><path class="cls-5" d="M3016.82,961a23.52,23.52,0,0,0,10.19,2.53c4.22,0,6.45-1.75,6.45-4.4s-1.93-4-6.81-5.73c-6.76-2.35-11.16-6.09-11.16-12,0-6.94,5.79-12.25,15.38-12.25a25,25,0,0,1,10.37,2l-2,7.42a19.37,19.37,0,0,0-8.5-1.93c-4,0-5.91,1.81-5.91,3.92,0,2.6,2.29,3.74,7.54,5.73,7.17,2.65,10.55,6.39,10.55,12.12,0,6.82-5.25,12.61-16.4,12.61a26.52,26.52,0,0,1-11.52-2.48Z" transform="translate(-2889.16 -858.72)"/><g class="cls-6"><path class="cls-7" d="M3265.56,963.73l-51.85,11.45a42.36,42.36,0,0,1-50-32.92l-2.18-11.88a41.81,41.81,0,0,1-1-9V887.21l83.06,54.54Z" transform="translate(-2889.16 -858.72)"/></g><path class="cls-8" d="M3265.56,963.73h-62.7a42.34,42.34,0,0,1-38.12-23.89,41.32,41.32,0,0,1-3.25-9.46,41.81,41.81,0,0,1-1-9V858.72l83.06,83Z" transform="translate(-2889.16 -858.72)"/><path class="cls-8" d="M3212.21,1052v115.21l7.47-7.46H3028.94c-8.8,0-17.67-.32-26.46,0h-.37l7.47,7.46V1052l-7.47,7.46h190.74c8.81,0,17.65.2,26.46,0h.37c3.9,0,7.65-3.43,7.46-7.46a7.59,7.59,0,0,0-7.46-7.47H3028.94c-8.81,0-17.65-.19-26.46,0h-.37a7.58,7.58,0,0,0-7.47,7.47v115.21a7.58,7.58,0,0,0,7.47,7.47h190.74c8.81,0,17.65.2,26.46,0h.37a7.57,7.57,0,0,0,7.46-7.47V1052c0-3.91-3.43-7.65-7.46-7.47a7.6,7.6,0,0,0-7.47,7.47Z" transform="translate(-2889.16 -858.72)"/><path class="cls-8" d="M3060,1052v115.21c0,3.91,3.44,7.65,7.47,7.47a7.59,7.59,0,0,0,7.46-7.47V1052c0-3.91-3.43-7.65-7.46-7.47A7.6,7.6,0,0,0,3060,1052Z" transform="translate(-2889.16 -858.72)"/><path class="cls-8" d="M3002.11,1117.07h190.74c8.81,0,17.65.2,26.46,0h.37c3.9,0,7.65-3.43,7.46-7.46a7.59,7.59,0,0,0-7.46-7.47H3028.94c-8.81,0-17.65-.2-26.46,0h-.37c-3.91,0-7.65,3.43-7.47,7.47a7.59,7.59,0,0,0,7.47,7.46Z" transform="translate(-2889.16 -858.72)"/></g></g></svg>